<svg width="101" height="77" viewBox="0 0 101 77" fill="none" xmlns="http://www.w3.org/2000/svg">
<path class="sig-path" pathLength="1"  d="M23.0875 31.9231C22.2353 31.9231 20.0386 32.1656 13.3786 32.2299C10.3436 32.2592 7.67372 31.1958 5.1574 30.0901C3.04748 29.163 1.66395 28.0072 0.868646 27.3974C0.48699 27.1048 0.437017 26.5452 0.556403 26.053C1.08861 23.8586 7.13005 22.3869 11.3821 21.1507C17.6006 19.3429 27.1136 19.6832 29.2645 18.8254C30.4307 18.3603 30.6769 16.7444 31.0442 15.6461C31.861 13.2039 30.0744 11.1167 28.1147 6.41101C26.9262 3.55743 25.7839 1.31592 25.1741 0.641845C24.8969 0.335426 24.3218 0.573885 24.0114 0.878781C22.6564 2.20973 22.8451 4.60734 22.4153 6.69019C22.144 8.00476 22.2316 9.26528 21.9873 10.2424C21.7431 11.2196 21.6181 19.8412 21.5575 32.3897C21.5284 38.4219 20.8835 42.0619 20.5786 45.4433C20.3187 48.3259 18.8116 52.7149 17.6416 56.3406C16.8677 58.739 15.6231 61.1786 13.9719 62.1649C12.2042 63.2208 10.8476 64.0034 9.87045 64.1265C9.38205 64.188 8.8933 64.0071 8.64351 63.2779C7.36697 59.5516 8.02637 57.4022 8.32943 55.6298C8.61201 53.9771 10.348 53.4753 11.3251 53.231C14.0749 52.5436 18.0549 52.6194 21.361 52.5551C23.613 52.5113 26.4965 54.199 30.0506 55.0035C33.3706 55.755 36.3046 54.7022 37.6491 53.9694C38.8112 53.336 39.372 52.377 39.6162 51.3998C39.8605 50.4227 39.8642 49.317 39.4987 48.1561C39.3167 47.578 38.8907 47.1166 38.3397 46.8668C37.7887 46.617 37.0614 46.617 36.5048 46.7988C35.9483 46.9806 35.5846 47.3443 35.3973 48.0772C34.9432 49.8535 35.3312 51.51 35.6967 52.4872C36.0999 53.565 37.043 54.3275 38.382 54.8786C39.3004 55.2565 40.9332 55.0659 41.9268 54.8235C44.5557 54.182 44.7609 51.1574 45.2477 49.1957C45.7968 46.9826 48.3021 46.3745 49.7789 45.8841C50.2879 45.7151 48.1956 45.5149 47.156 45.7574C46.189 45.9829 46.2303 48.5602 46.4728 51.0692C46.5655 52.0288 47.2001 52.2447 47.6923 52.4302C48.6507 52.7914 49.654 52.9831 50.6311 53.1061C51.1195 53.1676 51.6082 52.9868 51.858 52.3182C53.1232 48.9321 51.3732 47.2341 51.4338 46.7419C51.6246 45.1918 52.9601 50.1582 54.367 51.6937C54.7244 52.0838 55.2817 52.2447 55.7739 52.1878C56.2662 52.1308 56.7511 51.7672 57.0615 51.3374C57.6537 50.5174 57.618 47.6198 57.8605 44.0694C57.947 42.8019 58.5878 42.7011 59.0801 42.6386C59.5723 42.5762 60.0572 42.5762 60.4888 42.758C60.9205 42.9398 61.2841 43.3035 61.4715 44.0364C62.3251 47.3757 62.0261 49.9084 62.0261 50.5972C62.0261 54.3937 62.511 43.4358 63.4882 43.0684C63.9635 42.8897 64.4653 42.9435 64.7757 43.186C65.4423 43.7066 65.3323 46.9586 66.1808 50.8157C66.5165 52.3413 68.7265 52.1271 69.7827 51.8847C72.3759 51.2894 72.3118 47.9761 72.9216 45.7684C73.6103 43.2749 73.4139 41.4815 73.1714 40.1976C73.0588 39.6011 72.4441 39.2774 71.9518 39.0294C71.4596 38.7815 70.9747 38.6603 70.7249 39.0221C69.265 41.1367 71.4522 43.0611 72.062 43.8564C73.2533 45.41 76.0955 45.0227 78.4869 45.5131C81.0887 46.0466 84.302 46.1247 86.2636 46.6151C86.7559 46.7382 87.2407 46.8594 87.5512 47.1643C88.1933 47.795 88.1077 49.0598 87.8652 50.16C87.3749 52.3853 83.8318 52.0023 81.8702 52.4927C79.9085 52.9831 76.9845 53.2292 73.1292 53.839C64.216 55.2488 62.1584 54.941 57.1478 55.1871C55.5074 55.2677 54.6829 56.1643 54.1319 56.9577C53.8645 57.3428 53.9446 57.8725 54.187 58.1829C55.3499 59.6716 58.338 59.4741 60.5494 59.779C62.5012 60.0481 67.1323 60.2088 70.7727 59.7826C72.9803 59.5242 74.5086 57.4022 75.9798 55.4406C77.4308 53.506 77.6971 51.1574 77.8826 47.9155C77.9638 46.4974 78.1894 41.0333 78.25 33.444C78.3291 23.5322 78.6779 11.5906 78.9222 12.7514C80.0158 17.9475 79.049 26.8905 78.8634 30.5621C78.7201 33.3982 78.3142 35.8317 77.8845 38.5243C77.4372 41.3265 77.0873 45.2431 76.7824 51.9582C76.2102 64.56 76.8412 73.5508 77.0855 74.5279C77.2086 75.0201 77.3298 75.505 77.5135 75.5124C79.1773 75.5789 78.5567 72.0961 78.8616 66.1946C79.0903 61.7681 78.9241 53.3982 78.9847 48.8468C79.0682 42.5766 79.5338 40.137 79.7194 31.4676C79.7698 29.1101 80.0261 26.435 80.2685 23.0077C80.3581 21.7422 80.9959 21.5199 81.5487 21.2738C83.7648 20.2872 87.711 20.1681 90.6718 20.9597C93.7336 21.7784 96.2995 26.8832 97.655 29.6493C98.6691 31.7188 99.7378 33.6276 99.7415 38.3333C99.7423 39.3946 99.3779 39.8725 99.0105 40.3041C98.1583 41.0994 91.8399 41.4741 82.8418 41.656C79.6624 41.8378 79.2987 42.2015 78.9241 42.5762" stroke="currentColor" stroke-linecap="round"/>
</svg>
